<?xml version="1.0" encoding="utf-8"?>
<!-- Generator: Adobe Illustrator 21.1.0, SVG Export Plug-In . SVG Version: 6.00 Build 0)  -->
<svg version="1.1" id="Layer_1" xmlns="http://www.w3.org/2000/svg" xmlns:xlink="http://www.w3.org/1999/xlink" x="0px" y="0px"
	 viewBox="0 0 75 83.8" style="enable-background:new 0 0 75 83.8;" xml:space="preserve">
<style type="text/css">
	.st0{fill:#F66F6F;}
</style>
<g>
	<g>
		<g>
			<g>
				<g>
					<path class="st0" d="M8.2,66.6C7,66,5.8,65.4,4.7,64.5c-2.8-2.3-4-5.2-3.7-8.6c0.4-3.4,2.6-6.3,5.8-7.7c1.7-0.8,3.7-1,5.5-0.9
						l0.1-0.1c0.9-1.8,1.8-3.5,2.9-5.1c2.1-3.4,4.8-6.1,7.6-8.1c0.5-0.6,0.8-1,0.8-1.8c0.2-1-0.2-1.9-0.8-2.7
						c-2.7-2.9-4.5-7-4.5-11.5C18.4,8.7,26,1,35.5,1h0.1c0.1,0,0.1,0,0.2,0c9.5,0,17.1,7.7,17.1,17.1c0,4.5-1.8,8.6-4.5,11.5
						c-0.6,0.8-0.9,1.6-0.8,2.7c1,0.1,2.1,0.3,3.1,0.7c2.7,0.9,4.9,2.5,6.5,4.6c2.6-0.8,5.4-0.8,8,0.1c4.5,1.5,7.7,4.9,8.7,9.4
						c0.9,4.3-0.4,8.4-3.7,11.6c-2.1,2.1-4.8,3.7-7.2,4.9c0.1,0.9,0.1,1.7,0.1,2.6c0,3.9-1.5,7.2-4.2,9.9
						c-4.7,4.5-14.1,6.6-23.3,6.6s-18.6-2-23.2-6.6C9.8,73.4,8.3,70.3,8.2,66.6z M38.1,35.1c-0.9-0.2-1.7-0.3-2.6-0.3
						c-4.5,0-9.8,2.8-14.2,7.9c1.8,0.1,3.5,0.7,4.9,1.7c2.8,2,4.1,4.8,3.9,8.4c-0.1,2.7-1,5.1-1.8,7.3c-0.9,2.3-3.4,7.6-4.1,8.8
						l-0.9,1.7c-0.2,0.3-0.6,0.5-1,0.4l-1.8-0.4c-0.9-0.2-4.1-1.1-6.7-1.9c0.4,1.2,1,2.3,2,3.2c3.4,3.2,11.5,4.8,19.6,4.8
						s16.3-1.6,19.7-4.8c1.6-1.7,2.4-3.6,2.4-6v-0.1c-3.4,1.4-7.4,3-8.7,3.4l-2.1,0.7c-0.4,0.1-0.8,0-1-0.3l-1.2-1.9
						c-1-1.4-5.3-8.6-6.9-11.7c-1.2-2.3-3-5.9-3.5-9.6C33.6,42,35,38.1,38.1,35.1z M66.8,55.1c2.2-2.2,2.9-4.6,2.4-7.3
						c-0.6-2.8-2.7-4.9-5.5-5.9c-2.2-0.8-4.5-0.6-6.4,0.5l-1.6,0.8c-0.3,0.2-0.7,0-0.9-0.3L54,41.3c-1-1.9-2.8-3.4-4.9-4.1
						c-1-0.3-1.9-0.5-2.9-0.5c-1,0-2,0.2-2.9,0.6c-0.8,0.3-1.4,0.8-2.1,1.2c-2.1,1.8-2.9,4.3-2.5,7.3c0.4,3,1.9,6.1,3,8.1
						c1.2,2.3,4.3,7.5,5.9,10.1c0.2,0.3,0.5,0.4,0.8,0.3c2.1-0.8,5.9-2.4,8.6-3.5c0.9-0.4,1.6-0.8,2.2-1c1-0.5,1.9-1,2.9-1.5
						C64,57.5,65.6,56.4,66.8,55.1z M47.4,18.3c0.2-6.8-5.1-12.3-11.9-12.3c-6.7,0-11.8,5.3-11.8,11.9c0,6.7,5.5,12.1,12.3,11.9
						C42.2,29.5,47.2,24.4,47.4,18.3z M25.5,52.7c0.1-1.9-0.6-3.3-1.9-4.4c-1.3-1-3.2-1.1-4.9-0.4c-0.4,0.2-0.7,0.4-1,0.6
						c-0.9,0.6-1.4,1.4-1.7,2.3l-0.6,1.7c-0.1,0.3-0.5,0.5-0.8,0.4l-1.7-0.6c-0.6-0.2-1.1-0.3-1.7-0.3c-0.2,0-0.4,0-0.6,0
						c-0.6,0.1-1.1,0.2-1.7,0.5c-1.7,0.8-2.9,2.2-3,3.9s0.5,3.1,2,4.4C8,60.9,8.3,61,8.5,61.2c1.4,1,3.2,1.7,4.6,2.2
						c0.2,0.1,0.4,0.2,0.7,0.2c1.7,0.6,4.6,1.4,6.5,1.9c0.3,0.1,0.7-0.1,0.8-0.4c1-2.1,2.5-5.2,3.1-6.8
						C24.7,56.7,25.5,54.6,25.5,52.7z"/>
				</g>
			</g>
		</g>
	</g>
</g>
</svg>
